<svg width="61" height="40" viewBox="0 0 61 40" fill="none" xmlns="http://www.w3.org/2000/svg">
<rect width="61" height="40" fill="#F5F5F5"/>
<g clip-path="url(#clip0_0_1)">
<rect width="1440" height="1024" transform="translate(-1040 -461)" fill="#062638"/>
<g clip-path="url(#clip1_0_1)">
<path d="M-1040 -381H400V563H-1040V-381Z" fill="#F2F6F8"/>
</g>
<path d="M-1040 -357C-1040 -370.807 -1028.81 -382 -1015 -382H375C388.807 -382 400 -370.807 400 -357C400 -369.703 389.255 -380 376 -380H-1016C-1029.25 -380 -1040 -369.703 -1040 -357ZM400 563H-1040H400ZM-1040 563V-381V563ZM400 -381V563V-381Z" fill="#B2DCEE" mask="url(#path-1-inside-1_0_1)"/>
<path d="M-30 -227C-30 -232.523 -25.5228 -237 -20 -237H360C365.523 -237 370 -232.523 370 -227V59C370 64.5229 365.523 69 360 69H-20C-25.5229 69 -30 64.5229 -30 59V-227Z" fill="white"/>
<g clip-path="url(#clip2_0_1)">
<path d="M3.12821 0H57.8718C59.5995 0 61 1.40961 61 3.14839V36.2065C61 37.9453 59.5995 39.3548 57.8718 39.3548H3.12821C1.40058 39.3548 0 37.9453 0 36.2065V3.14839C0 1.40961 1.40058 0 3.12821 0Z" fill="#2557D6"/>
<path d="M0.000391282 19.529H2.93039L3.59103 17.9858H5.07008L5.729 19.529H11.494V18.3493L12.0086 19.5342H15.0014L15.516 18.3317V19.5291H29.8432L29.8365 16.9959H30.1137C30.3077 17.0025 30.3645 17.0198 30.3645 17.3302V19.5291H37.7745V18.9395C38.3723 19.2495 39.3019 19.5291 40.525 19.5291H43.6425L44.3096 17.9859H45.7887L46.4411 19.5291H52.4484V18.0633L53.3583 19.5291H58.1722V9.83887H53.4079V10.9833L52.741 9.83887H47.8523V10.9833L47.2397 9.83887H40.6364C39.5312 9.83887 38.5596 9.98828 37.7746 10.4047V9.83887H33.2178V10.4047C32.7183 9.97547 32.0378 9.83887 31.281 9.83887H14.6327L13.5157 12.3416L12.3685 9.83887H7.12494V10.9833L6.54882 9.83887H2.07685L0 14.446V19.5289H0.000234769L0.000391282 19.529ZM18.4955 18.1314H16.7376L16.7311 12.6899L14.2445 18.1313H12.7388L10.2457 12.6851V18.1313H6.75784L6.09892 16.5816H2.52831L1.86274 18.1313H0.000156513L3.07102 11.1836H5.61897L8.53551 17.7617V11.1836H11.3344L13.5787 15.8968L15.6403 11.1836H18.4955L18.4955 18.1314ZM5.51278 15.1397L4.33909 12.3699L3.17189 15.1397H5.51278ZM25.4917 18.1312H19.7631V11.1835H25.4917V12.6303H21.478V13.8827H25.3955V15.3068H21.4779V16.6943H25.4916L25.4917 18.1312ZM33.5646 13.0547C33.5646 14.1624 32.8012 14.7348 32.3564 14.9066C32.7316 15.0448 33.0522 15.2893 33.2047 15.4917C33.4468 15.8372 33.4886 16.1459 33.4886 16.7664V18.1312H31.7588L31.7523 17.2551C31.7523 16.837 31.7937 16.2358 31.4817 15.9015C31.2311 15.6571 30.8492 15.6041 30.2317 15.6041H28.3909V18.1313H26.676V11.1835H30.6202C31.4966 11.1835 32.1424 11.2059 32.6967 11.5163C33.2393 11.8267 33.5646 12.2797 33.5646 13.0547ZM31.397 14.0863C31.1612 14.2249 30.8826 14.2295 30.5486 14.2295H28.4654V12.6863H30.5769C30.8757 12.6863 31.1876 12.6993 31.3902 12.8116C31.6127 12.9128 31.7503 13.1282 31.7503 13.4258C31.7503 13.7295 31.6193 13.9739 31.397 14.0863ZM36.3149 18.1312H34.5653V11.1835H36.3149V18.1312ZM56.6272 18.1312H54.1971L50.9467 12.9166V18.1312H47.4543L46.787 16.5815H43.2247L42.5774 18.1312H40.5703C39.7369 18.1312 38.6813 17.9527 38.0838 17.3628C37.4812 16.7729 37.1676 15.9738 37.1676 14.7104C37.1676 13.68 37.355 12.738 38.092 11.9936C38.6464 11.4392 39.5147 11.1835 40.6964 11.1835H42.3566V12.6722H40.7311C40.1053 12.6722 39.7518 12.7624 39.4115 13.0838C39.1193 13.3764 38.9187 13.9293 38.9187 14.6576C38.9187 15.4019 39.0714 15.9386 39.39 16.2892C39.654 16.5641 40.1339 16.6475 40.5851 16.6475H41.3553L43.7722 11.1838H46.3418L49.2453 17.7553V11.1838H51.8564L54.8707 16.0226V11.1838H56.6272V18.1312ZM46.2034 15.1398L45.0167 12.37L43.8365 15.1398H46.2034ZM60.997 29.2255C60.5805 29.8153 59.7689 30.1144 58.67 30.1144H55.3583V28.6242H58.6565C58.9837 28.6242 59.2126 28.5825 59.3505 28.4521C59.4808 28.3355 59.5544 28.171 59.5533 27.999C59.5533 27.7964 59.47 27.6357 59.3438 27.5393C59.2194 27.4332 59.0383 27.3851 58.7395 27.3851C57.1294 27.3321 55.1206 27.4332 55.1206 25.2341C55.1206 24.2263 55.7813 23.1652 57.5809 23.1652H60.9967V21.7827H57.8229C56.8652 21.7827 56.1694 22.005 55.6767 22.3501V21.7826H50.9825C50.2316 21.7826 49.3505 21.9629 48.9338 22.3501V21.7826H40.5509V22.3501C39.8839 21.8841 38.7583 21.7826 38.2386 21.7826H32.7093V22.3501C32.1814 21.8551 31.0078 21.7826 30.2922 21.7826H24.1039L22.688 23.2668L21.3616 21.7826H12.1172V31.4792H21.1871L22.6463 29.9714L24.0208 31.4792L29.6116 31.484V29.203H30.1611C30.9029 29.2141 31.7779 29.185 32.5497 28.8619V31.4789H37.1612V28.9516H37.3836C37.6675 28.9516 37.6954 28.9629 37.6954 29.2375V31.4786H51.7041C52.5935 31.4786 53.5231 31.2582 54.0381 30.858V31.4786H58.4815C59.4061 31.4786 60.3091 31.353 60.9962 31.0317L60.9963 29.2252L60.997 29.2255ZM33.2207 25.4956C33.2207 27.4261 31.7334 27.8247 30.2345 27.8247H28.0947V30.1556H24.7617L22.65 27.8549L20.4555 30.1556H13.6627V23.2061H20.5599L22.6697 25.4841L24.8511 23.2061H30.3307C31.6915 23.2061 33.2207 23.571 33.2207 25.4956ZM19.5868 28.6939H15.3705V27.3112H19.1354V25.8933H15.3705V24.6298H19.6698L21.5456 26.655L19.5868 28.6939ZM26.3803 29.4896L23.7474 26.6588L26.3803 23.918V29.4896ZM30.2741 26.3995H28.058V24.6298H30.294C30.9131 24.6298 31.3429 24.8742 31.3429 25.4819C31.3429 26.0829 30.933 26.3995 30.2741 26.3995ZM41.8842 23.2061H47.6077V24.6433H43.592V25.9068H47.5097V27.3247H43.592V28.7073L47.6077 28.7136V30.1556H41.8841L41.8842 23.2061ZM39.6837 26.926C40.0654 27.0625 40.3775 27.307 40.5237 27.5094C40.7659 27.8488 40.8009 28.1654 40.8079 28.7779V30.1556H39.0861V29.2861C39.0861 28.868 39.1276 28.249 38.8089 27.9258C38.5584 27.6769 38.1763 27.6174 37.5508 27.6174H35.7181V30.1557H33.9949V23.2062H37.9542C38.8223 23.2062 39.4546 23.2434 40.0175 23.5342C40.5586 23.8509 40.8991 24.2846 40.8991 25.0774C40.899 26.1865 40.135 26.7526 39.6837 26.926ZM38.7145 26.0475C38.4851 26.1793 38.2015 26.1907 37.8679 26.1907H35.7846V24.63H37.8961C38.2015 24.63 38.507 24.6363 38.7145 24.7555C38.9368 24.8681 39.0696 25.0834 39.0696 25.3806C39.0696 25.6779 38.9367 25.9174 38.7145 26.0475ZM54.1952 26.4902C54.5294 26.8247 54.7081 27.2472 54.7081 27.9624C54.7081 29.4574 53.7438 30.1553 52.0141 30.1553H48.6741V28.6651H52.0008C52.3261 28.6651 52.5568 28.6235 52.7012 28.493C52.8192 28.3856 52.9038 28.2294 52.9038 28.0399C52.9038 27.8373 52.8123 27.6767 52.6945 27.5802C52.5634 27.4743 52.3826 27.4261 52.0838 27.4261C50.4801 27.3731 48.4718 27.4743 48.4718 25.2753C48.4718 24.2672 49.1256 23.2062 50.9235 23.2062H54.3615V24.6853H51.2157C50.904 24.6853 50.7012 24.6968 50.5287 24.8109C50.3409 24.9234 50.2713 25.0904 50.2713 25.3107C50.2713 25.5728 50.4307 25.7513 50.6465 25.8285C50.8274 25.8894 51.0218 25.9072 51.3137 25.9072L52.2369 25.9314C53.1678 25.9532 53.8068 26.1092 54.1952 26.4902ZM61 24.6298H57.8746C57.5627 24.6298 57.3551 24.6412 57.1807 24.7553C56.9998 24.8679 56.9301 25.0349 56.9301 25.2554C56.9301 25.5175 57.0828 25.6958 57.305 25.773C57.486 25.834 57.6803 25.8518 57.9658 25.8518L58.8954 25.8758C59.8331 25.8983 60.4591 26.0544 60.8408 26.4352C60.9106 26.4882 60.9521 26.5477 60.9999 26.6073V24.6298H61Z" fill="white"/>
</g>
</g>
<defs>
<clipPath id="clip0_0_1">
<rect width="1440" height="1024" fill="white" transform="translate(-1040 -461)"/>
</clipPath>
<clipPath id="clip1_0_1">
<path d="M-1040 -357C-1040 -370.255 -1029.25 -381 -1016 -381H376C389.255 -381 400 -370.255 400 -357V563H-1040V-357Z" fill="white"/>
</clipPath>
<clipPath id="clip2_0_1">
<rect width="61" height="39.3548" fill="white"/>
</clipPath>
</defs>
</svg>
