<svg width="90" height="90" viewBox="0 0 90 90" fill="none" xmlns="http://www.w3.org/2000/svg">
<g clip-path="url(#clip0_170_4573)">
<path d="M82.715 23.1734C82.6688 20.7435 82.6247 18.448 82.6247 16.2273C82.6247 14.4875 81.2146 13.0771 79.4744 13.0771C66.002 13.0771 55.7444 9.20524 47.1942 0.891988C45.9711 -0.297539 44.0247 -0.297119 42.802 0.891988C34.2527 9.20524 23.9968 13.0771 10.5251 13.0771C8.78537 13.0771 7.37491 14.4875 7.37491 16.2273C7.37491 18.4484 7.33122 20.7447 7.2846 23.175C6.85281 45.7878 6.26141 76.7571 43.9663 89.8264C44.3007 89.9423 44.6493 90.0003 44.9979 90.0003C45.3465 90.0003 45.6956 89.9423 46.0295 89.8264C83.7373 76.7567 83.1468 45.7866 82.715 23.1734ZM44.9983 83.507C12.6614 71.76 13.1503 46.0268 13.5842 23.2952C13.6103 21.9309 13.6355 20.6087 13.6531 19.3124C26.2708 18.7798 36.3608 14.9563 44.9983 7.43187C53.6367 14.9563 63.7283 18.7803 76.3469 19.3124C76.3645 20.6082 76.3897 21.9297 76.4158 23.2931C76.8493 46.0256 77.3378 71.7596 44.9983 83.507Z" fill="#27AAE1"/>
<path d="M55.8458 34.0568L40.6412 49.2606L34.1529 42.7724C32.9227 41.5426 30.9279 41.5426 29.6981 42.7724C28.4678 44.0031 28.4678 45.9974 29.6981 47.2277L38.4137 55.9433C39.0287 56.5582 39.8351 56.8657 40.6412 56.8657C41.4472 56.8657 42.2537 56.5582 42.8686 55.9433L60.3003 38.512C61.531 37.2818 61.531 35.287 60.3007 34.0572C59.0708 32.8269 57.0761 32.8265 55.8458 34.0568Z" fill="#27AAE1"/>
</g>
<defs>
<clipPath id="clip0_170_4573">
<rect width="90" height="90" fill="white"/>
</clipPath>
</defs>
</svg>
