<svg width="20" height="20" viewBox="0 0 20 20" fill="none" xmlns="http://www.w3.org/2000/svg">
<path fill-rule="evenodd" clip-rule="evenodd" d="M2.30769 1.53846C1.88286 1.53846 1.53846 1.88286 1.53846 2.30769V17.6923C1.53846 18.1171 1.88286 18.4615 2.30769 18.4615H17.6923C18.1171 18.4615 18.4615 18.1171 18.4615 17.6923V2.30769C18.4615 1.88286 18.1171 1.53846 17.6923 1.53846H2.30769ZM0 2.30769C0 1.03319 1.03319 0 2.30769 0H17.6923C18.9668 0 20 1.03319 20 2.30769V17.6923C20 18.9668 18.9668 20 17.6923 20H2.30769C1.03319 20 0 18.9668 0 17.6923V2.30769ZM4 4.81818C4 4.36632 4.36632 4 4.81818 4H9.18182C9.63367 4 10 4.36632 10 4.81818V9.18182C10 9.63367 9.63367 10 9.18182 10H4.81818C4.36632 10 4 9.63367 4 9.18182V4.81818ZM5.63636 5.63636V8.36364H8.36364V5.63636H5.63636ZM4.81818 11C4.36632 11 4 11.3663 4 11.8182V16.1818C4 16.6337 4.36632 17 4.81818 17H9.18182C9.63367 17 10 16.6337 10 16.1818V11.8182C10 11.3663 9.63367 11 9.18182 11H4.81818ZM5.63636 15.3636V12.6364H8.36364V15.3636H5.63636ZM11 14C11 13.4477 11.3663 13 11.8182 13H16.1818C16.6337 13 17 13.4477 17 14C17 14.5523 16.6337 15 16.1818 15H11.8182C11.3663 15 11 14.5523 11 14ZM11.8182 6C11.3663 6 11 6.44772 11 7C11 7.55228 11.3663 8 11.8182 8H16.1818C16.6337 8 17 7.55228 17 7C17 6.44772 16.6337 6 16.1818 6H11.8182Z" fill="#ffffff"/>
</svg>
