<svg width="78" height="77" viewBox="0 0 78 77" fill="none" xmlns="http://www.w3.org/2000/svg">
<path fill-rule="evenodd" clip-rule="evenodd" d="M71.5 38.5C71.5 56.4493 56.9493 71 39 71C21.0507 71 6.5 56.4493 6.5 38.5C6.5 20.5507 21.0507 6 39 6C56.9493 6 71.5 20.5507 71.5 38.5ZM77.5 38.5C77.5 59.763 60.263 77 39 77C17.737 77 0.5 59.763 0.5 38.5C0.5 17.237 17.737 0 39 0C60.263 0 77.5 17.237 77.5 38.5ZM34.6421 43.1263L49.8468 27.9225C51.0771 26.6922 53.0718 26.6926 54.3017 27.9229C55.5319 29.1528 55.5319 31.1475 54.3013 32.3778L36.8696 49.809C36.2546 50.424 35.4482 50.7314 34.6421 50.7314C33.8361 50.7314 33.0296 50.424 32.4147 49.809L23.6991 41.0934C22.4688 39.8631 22.4688 37.8688 23.6991 36.6381C24.9289 35.4083 26.9236 35.4083 28.1539 36.6381L34.6421 43.1263Z" fill="#27AAE1"/>
</svg>
