<svg width="20" height="20" viewBox="0 0 20 20" fill="none" xmlns="http://www.w3.org/2000/svg">
<path fill-rule="evenodd" clip-rule="evenodd" d="M6.02984 2.82102C6.02984 1.28028 7.27887 0.03125 8.81961 0.03125H11.1804C12.7211 0.03125 13.9702 1.28028 13.9702 2.82102V6.02984H17.179C18.7197 6.02984 19.9688 7.27887 19.9688 8.81961V11.1804C19.9688 12.7211 18.7197 13.9702 17.179 13.9702H13.9702L13.9702 17.179C13.9702 18.7197 12.7212 19.9688 11.1804 19.9688H8.81965C7.27891 19.9688 6.02988 18.7197 6.02988 17.179V13.9702H2.82102C1.28028 13.9702 0.03125 12.7211 0.03125 11.1804V8.81961C0.03125 7.27887 1.28028 6.02984 2.82102 6.02984H6.02984V2.82102ZM8.81961 1.53125C8.1073 1.53125 7.52984 2.10871 7.52984 2.82102V6.77984C7.52984 7.19406 7.19406 7.52984 6.77984 7.52984H2.82102C2.10871 7.52984 1.53125 8.1073 1.53125 8.81961V11.1804C1.53125 11.8927 2.10871 12.4702 2.82102 12.4702H6.77988C7.1941 12.4702 7.52988 12.8059 7.52988 13.2202V17.179C7.52988 17.8913 8.10734 18.4688 8.81965 18.4688H11.1804C11.8927 18.4688 12.4702 17.8913 12.4702 17.179L12.4702 13.2202C12.4702 13.0213 12.5492 12.8305 12.6898 12.6898C12.8305 12.5492 13.0212 12.4702 13.2202 12.4702H17.179C17.8913 12.4702 18.4688 11.8927 18.4688 11.1804V8.81961C18.4688 8.1073 17.8913 7.52984 17.179 7.52984H13.2202C12.8059 7.52984 12.4702 7.19406 12.4702 6.77984V2.82102C12.4702 2.10871 11.8927 1.53125 11.1804 1.53125H8.81961Z" fill="#303334"/>
</svg>
