<svg width="20" height="20" viewBox="0 0 20 20" fill="none" xmlns="http://www.w3.org/2000/svg">
<path d="M0.25 19.25C0.25 19.6642 0.585786 20 1 20C1.41421 20 1.75 19.6642 1.75 19.25H0.25ZM11.5247 18.5118L12.2747 18.5131L12.2747 18.5124L11.5247 18.5118ZM10.7734 19.2487C10.7727 19.6629 11.108 19.9993 11.5222 20C11.9364 20.0007 12.2727 19.6655 12.2734 19.2513L10.7734 19.2487ZM16.3116 10.7197C16.0187 10.4268 15.5438 10.4268 15.2509 10.7197C14.958 11.0126 14.958 11.4874 15.2509 11.7803L16.3116 10.7197ZM18.9062 14.375L19.4366 14.9053C19.7295 14.6124 19.7295 14.1376 19.4366 13.8447L18.9062 14.375ZM15.2509 16.9697C14.958 17.2626 14.958 17.7374 15.2509 18.0303C15.5438 18.3232 16.0187 18.3232 16.3116 18.0303L15.2509 16.9697ZM5.75 5.78125C5.75 3.43406 7.65281 1.53125 10 1.53125V0.03125C6.82438 0.03125 4.25 2.60563 4.25 5.78125H5.75ZM10 1.53125C12.3472 1.53125 14.25 3.43406 14.25 5.78125H15.75C15.75 2.60563 13.1756 0.03125 10 0.03125V1.53125ZM14.25 5.78125C14.25 8.12844 12.3472 10.0312 10 10.0312V11.5312C13.1756 11.5312 15.75 8.95687 15.75 5.78125H14.25ZM10 10.0312C7.65281 10.0312 5.75 8.12844 5.75 5.78125H4.25C4.25 8.95687 6.82438 11.5312 10 11.5312V10.0312ZM1.75 19.25C1.75 14.6322 5.2609 11.5312 10 11.5312V10.0312C4.55636 10.0312 0.25 13.6851 0.25 19.25H1.75ZM18.2031 13.5859H15.7041V15.0859H18.2031V13.5859ZM15.7041 13.5859C12.9833 13.5859 10.777 15.7904 10.7747 18.5112L12.2747 18.5124C12.2763 16.6196 13.8112 15.0859 15.7041 15.0859V13.5859ZM10.7747 18.5105L10.7734 19.2487L12.2734 19.2513L12.2747 18.5131L10.7747 18.5105ZM15.2509 11.7803L18.3759 14.9053L19.4366 13.8447L16.3116 10.7197L15.2509 11.7803ZM18.3759 13.8447L15.2509 16.9697L16.3116 18.0303L19.4366 14.9053L18.3759 13.8447Z" fill="#ffffff"/>
</svg>
