<svg width="90" height="90" viewBox="0 0 90 90" fill="none" xmlns="http://www.w3.org/2000/svg">
<path fill-rule="evenodd" clip-rule="evenodd" d="M79.2947 82H10.5022C8.96375 82.0011 7.45259 81.5941 6.12282 80.8206C4.79305 80.047 3.69226 78.9346 2.93273 77.5968C2.1732 76.2589 1.78212 74.7436 1.79938 73.2053C1.81663 71.667 2.24162 70.1608 3.03097 68.8403L37.4301 11.2401C38.2016 9.94748 39.2953 8.87719 40.6044 8.13396C41.9135 7.39073 43.3931 7 44.8984 7C46.4038 7 47.8834 7.39073 49.1924 8.13396C50.5015 8.87719 51.5953 9.94748 52.3667 11.2401L86.7659 68.8403C87.5552 70.1608 87.9802 71.667 87.9975 73.2053C88.0147 74.7436 87.6236 76.2589 86.8641 77.5968C86.1046 78.9346 85.0038 80.047 83.674 80.8206C82.3442 81.5941 80.8331 82.0011 79.2947 82ZM42.3801 14.2113L7.97522 71.7971C7.71745 72.2441 7.58113 72.7507 7.57982 73.2667C7.5785 73.7827 7.71224 74.29 7.96773 74.7383C8.22323 75.1866 8.59159 75.5602 9.0362 75.822C9.48081 76.0838 9.98621 76.2247 10.5022 76.2308H79.2947C79.8106 76.2247 80.316 76.0838 80.7606 75.822C81.2053 75.5602 81.5736 75.1866 81.8291 74.7383C82.0846 74.29 82.2183 73.7827 82.217 73.2667C82.2157 72.7507 82.0794 72.2441 81.8216 71.7971L47.4167 14.2113C47.1505 13.7832 46.7796 13.43 46.339 13.1851C45.8983 12.9403 45.4025 12.8117 44.8984 12.8117C44.3943 12.8117 43.8985 12.9403 43.4579 13.1851C43.0173 13.43 42.6463 13.7832 42.3801 14.2113ZM44.8983 56.0383C45.6633 56.0383 46.3971 55.7344 46.938 55.1934C47.479 54.6524 47.7829 53.9187 47.7829 53.1537V32.9613C47.7829 32.1962 47.479 31.4625 46.938 30.9215C46.3971 30.3806 45.6633 30.0767 44.8983 30.0767C44.1332 30.0767 43.3995 30.3806 42.8586 30.9215C42.3176 31.4625 42.0137 32.1962 42.0137 32.9613V53.1537C42.0137 53.9187 42.3176 54.6524 42.8586 55.1934C43.3995 55.7344 44.1332 56.0383 44.8983 56.0383ZM44.8983 67.5769C46.4914 67.5769 47.7829 66.2854 47.7829 64.6922C47.7829 63.0991 46.4914 61.8076 44.8983 61.8076C43.3052 61.8076 42.0137 63.0991 42.0137 64.6922C42.0137 66.2854 43.3052 67.5769 44.8983 67.5769Z" fill="#27AAE1"/>
</svg>
