<svg width="24" height="24" viewBox="0 0 24 24" fill="none" xmlns="http://www.w3.org/2000/svg">
<path fill-rule="evenodd" clip-rule="evenodd" d="M12 0C5.38125 0 0 5.38125 0 12C0 18.6187 5.38125 24 12 24C18.6187 24 24 18.6187 24 12C24 5.38125 18.6187 0 12 0Z" fill="#4BAE4F"/>
<path fill-rule="evenodd" clip-rule="evenodd" d="M17.7828 8.23362C18.0724 8.54017 18.0724 9.0445 17.7828 9.35105L10.7762 16.7676C10.6314 16.9209 10.4399 17 10.2483 17C10.0568 17 9.86532 16.9209 9.72051 16.7676L6.21721 13.0593C5.9276 12.7528 5.9276 12.2485 6.21721 11.9419C6.50681 11.6354 6.98326 11.6354 7.27287 11.9419L10.2483 15.0915L16.7271 8.23362C17.0167 7.92213 17.4932 7.92213 17.7828 8.23362Z" fill="white" stroke="white"/>
</svg>
