<svg width="90" height="90" viewBox="0 0 90 90" fill="none" xmlns="http://www.w3.org/2000/svg">
<path d="M75.9772 10.8646H75.9768H66.9528V4.4031C66.9528 2.99573 65.7256 1.63867 64.2379 1.70211C63.5273 1.71558 62.8493 2.00333 62.3465 2.50521C61.8427 3.00806 61.5541 3.68658 61.5416 4.39783L61.5416 4.39783V4.4031V10.8646H28.4632V4.4031C28.4632 2.99573 27.2361 1.63867 25.7484 1.70211C25.0378 1.71558 24.3598 2.00333 23.857 2.50522C23.3532 3.00806 23.0646 3.68658 23.0521 4.39783L23.0521 4.39783V4.4031V10.8646H14.028H14.0276C10.7595 10.8685 7.62627 12.1661 5.3152 14.4728C3.00411 16.7796 1.70392 19.9073 1.7 23.1698V23.1701V75.9945C1.7 82.783 7.23307 88.3 14.028 88.3H75.972C82.7718 88.3 88.3 82.7829 88.3 75.9945V23.1701V23.1699C88.2974 19.9078 86.9983 16.7801 84.688 14.4732C82.3776 12.1662 79.2449 10.8685 75.9772 10.8646ZM14.028 16.2668H23.0521V18.8097C23.0521 20.2184 24.2814 21.5766 25.7709 21.5105C27.2139 21.4467 28.4632 20.3353 28.4632 18.8097V16.2668H61.5416V18.8097C61.5416 20.2184 62.7709 21.5766 64.2605 21.5105C65.7034 21.4468 66.9528 20.3353 66.9528 18.8097V16.2668H75.972C79.7857 16.2668 82.8888 19.3649 82.8888 23.1701V30.4768H7.11119V23.1701C7.11119 19.3649 10.2143 16.2668 14.028 16.2668ZM75.9766 82.8978H14.028C10.2143 82.8978 7.11119 79.7997 7.11119 75.9945V35.8791H82.8888V75.9945C82.8888 77.8244 82.1609 79.5795 80.8648 80.874C79.5686 82.1686 77.8105 82.8966 75.9766 82.8978Z" fill="#27AAE1" stroke="#27AAE1" stroke-width="0.6"/>
</svg>
