<svg width="20" height="20" viewBox="0 0 20 20" fill="none" xmlns="http://www.w3.org/2000/svg">
<path d="M16.7269 1.01062H3.27314C2.01829 1.01062 1 2.06205 1 3.35774C1 3.92063 1.19543 4.46227 1.54514 4.88709L6.86286 11.2912C7.05829 11.5355 7.17143 11.8435 7.17143 12.1515V18.1414C7.17143 18.7893 7.49029 19.384 8.02514 19.7239C8.31314 19.9044 8.64229 20 8.97143 20C9.24914 20 9.51657 19.9363 9.77371 19.7982L11.8309 18.7362C12.448 18.4176 12.8286 17.7803 12.8286 17.0688V12.1409C12.8286 11.8222 12.9417 11.5143 13.1371 11.2806L18.4549 4.87647C18.8046 4.45165 19 3.91001 19 3.34712C19 2.05143 17.9817 1 16.7269 1V1.01062ZM17.2823 3.84628L11.9646 10.2504C11.5223 10.7814 11.2857 11.4505 11.2857 12.1515V17.0794C11.2857 17.1856 11.2343 17.2705 11.1417 17.313L9.08457 18.3751C8.97143 18.4388 8.87886 18.3963 8.83771 18.3644C8.79657 18.3326 8.71429 18.2689 8.71429 18.1414V12.1515C8.71429 11.4505 8.47772 10.7814 8.03543 10.2504L2.71771 3.84628C2.60457 3.70822 2.54286 3.53829 2.54286 3.35774C2.54286 2.94354 2.872 2.60369 3.27314 2.60369H16.7269C17.128 2.60369 17.4571 2.94354 17.4571 3.35774C17.4571 3.53829 17.3954 3.70822 17.2823 3.84628Z" fill="#303334"/>
</svg>
