<svg width="151" height="40" viewBox="0 0 151 40" fill="none" xmlns="http://www.w3.org/2000/svg">
<g clip-path="url(#clip0_481_3977)">
<path d="M32.6456 5.84873L27.2267 12.6789H26.5305L21.2809 5.79212V18.094H17.3672V0.490234C18.8536 0.490234 20.3777 0.490234 21.8642 0.490234L26.9821 7.24495L32.1188 0.490234H36.5593V18.094H32.6456V5.84873Z" fill="#ED1C24"/>
<path d="M54.1717 18.0566H40.8125C40.8125 12.2075 40.8125 6.32074 40.8125 0.47168H53.8142V4.05659H44.6509V7.45281H53.3062V10.9056H44.6509V14.4339H54.1717V18.0566Z" fill="#221E1F"/>
<path fill-rule="evenodd" clip-rule="evenodd" d="M64.8009 0.47168C70.8408 0.47168 73.5314 4.54715 73.5314 9.13206C73.5314 13.7358 70.9349 18.0566 64.8009 18.0566C62.5995 18.0566 59.8147 18.0566 57.6133 18.0566V0.47168H64.8009ZM61.4517 14.4339H64.8009C68.6017 14.4339 69.6554 11.6226 69.6554 9.09432C69.6554 6.54715 68.4512 4.01885 64.8009 4.01885H61.4517V14.4339Z" fill="#221E1F"/>
<path d="M76.8242 18.0566V0.47168H80.7191V18.0566H76.8242Z" fill="#221E1F"/>
<path d="M100.102 15.9246C98.2955 17.717 95.9623 18.5095 93.3469 18.5095C86.6673 18.5095 83.9955 14.1887 83.9767 9.39626C83.9578 4.84909 86.9119 0.0566406 93.3469 0.0566406C95.7553 0.0566406 97.9944 1.00004 99.8007 2.77362L97.3359 5.22645C96.2822 4.18872 94.7581 3.75475 93.3469 3.75475C89.3768 3.75475 87.8151 6.84909 87.8339 9.41513C87.8715 11.9812 89.2451 14.8868 93.3469 14.8868C94.7581 14.8868 96.6209 14.2642 97.6745 13.2076L100.102 15.9246Z" fill="#221E1F"/>
<path fill-rule="evenodd" clip-rule="evenodd" d="M115.211 15.0377H106.217L104.937 18.0566H100.723L108.588 0.47168H112.859L120.724 18.0566H116.49L115.211 15.0377ZM110.733 4.43394L107.684 11.566H113.724L110.733 4.43394Z" fill="#221E1F"/>
<path d="M126.836 0.47168V14.4717H135.623V18.0566H122.922V0.47168H126.836Z" fill="#221E1F"/>
<path fill-rule="evenodd" clip-rule="evenodd" d="M45.6863 39.4525H41.9796L38.16 34.5091H35.7327V39.4525H32.4023V24.4336C34.8484 24.4336 37.0875 24.4336 39.4959 24.4336C43.1273 24.4336 45.0465 26.8676 45.0465 29.4902C45.0277 31.4525 44.4444 33.1883 41.5844 34.226L45.6863 39.1883V39.4525ZM35.7327 27.3204V31.6977H39.5523C41.0952 31.6977 41.7538 30.5279 41.7538 29.5845C41.735 28.5657 41.0576 27.3204 39.4959 27.3204H35.7327Z" fill="#ED1C24"/>
<path d="M59.6094 39.4525H48.207C48.207 34.4525 48.207 29.4336 48.207 24.4336H59.3083V27.5091H51.481V30.3959H58.8568V33.3393H51.481V36.3581H59.6094V39.4525Z" fill="#221E1F"/>
<path d="M75.2818 37.623C73.7389 39.1513 71.7632 39.8306 69.5242 39.8306C63.823 39.8306 61.5463 36.1513 61.5274 32.057C61.5086 28.1702 64.0299 24.0947 69.5242 24.0947C71.5939 24.0947 73.4943 24.8872 75.0372 26.4155L72.9298 28.491C72.0267 27.6042 70.7284 27.2457 69.5242 27.2457C66.1373 27.2457 64.8014 29.8872 64.8202 32.0759C64.8578 34.2645 66.0244 36.7551 69.5242 36.7551C70.7284 36.7551 72.3089 36.2079 73.212 35.3211L75.2818 37.623Z" fill="#221E1F"/>
<path fill-rule="evenodd" clip-rule="evenodd" d="M88.1901 36.8676H80.5133L79.4219 39.4525H75.8281L82.5454 24.4336H86.1768L92.894 39.4525H89.2814L88.1901 36.8676ZM84.3517 27.811L81.7739 33.9053H86.9294L84.3517 27.811Z" fill="#221E1F"/>
<path d="M98.1038 24.4336V36.377H105.593V39.4525H94.7734V24.4336H98.1038Z" fill="#221E1F"/>
<path d="M111.241 24.4336V36.377H118.729V39.4525H107.91V24.4336H111.241Z" fill="#221E1F"/>
<path d="M125.293 33.2081L133.685 23.076C133.685 23.076 134.193 25.793 134.437 27.1137C134.513 27.1515 134.532 27.1703 134.55 27.1703C136.752 26.8118 138.953 26.3967 140.797 24.9816C144.015 22.5477 145.576 19.3024 145.219 15.2458C144.73 9.8873 140.383 5.79296 135.021 5.56654C134.889 5.54767 134.738 5.54767 134.626 5.54767C140.139 5.01937 147.458 8.54768 149.716 16.2081C151.071 20.8496 150.337 25.2081 147.552 29.1703C144.786 33.1326 140.816 35.0383 136.074 35.5666C136.338 36.9817 136.846 39.6609 136.846 39.6609L125.293 33.2081Z" fill="#27AAE1"/>
<path d="M14.7712 5.88672L14.7523 19.0377C14.7523 19.0377 12.6262 17.2829 11.5913 16.415C11.5348 16.4339 11.4972 16.4339 11.4784 16.4339C9.99195 18.132 8.58077 19.8679 8.05393 22.132C7.11314 26.0565 7.99748 29.5471 10.8387 32.4339C14.6018 36.2641 20.5664 36.6414 24.8376 33.3962C24.9505 33.3207 25.0822 33.2264 25.1763 33.1509C21.2438 37.0943 13.3788 39.0565 6.75564 34.5848C2.76669 31.8867 0.565246 28.0377 0.18893 23.2263C-0.187386 18.3962 1.65656 14.3773 4.96814 10.9433C3.85801 10.0188 1.76946 8.28295 1.76946 8.28295L14.7712 5.88672Z" fill="#27AAE1"/>
</g>
<defs>
<clipPath id="clip0_481_3977">
<rect width="150.526" height="40" fill="white"/>
</clipPath>
</defs>
</svg>
