<svg width="26" height="26" viewBox="0 0 26 26" fill="none" xmlns="http://www.w3.org/2000/svg">
<g clip-path="url(#clip0_170_2576)">
<path d="M13 20C13.5523 20 14 19.5523 14 19C14 18.4477 13.5523 18 13 18C12.4477 18 12 18.4477 12 19C12 19.5523 12.4477 20 13 20Z" fill="white"/>
<path d="M13 0C5.81527 0 0 5.8143 0 13C0 20.1847 5.8143 26 13 26C20.1847 26 26 20.1857 26 13C26 5.81527 20.1857 0 13 0ZM13 23.9688C6.93789 23.9688 2.03125 19.0629 2.03125 13C2.03125 6.93789 6.93707 2.03125 13 2.03125C19.0621 2.03125 23.9688 6.93707 23.9688 13C23.9688 19.0621 19.0629 23.9688 13 23.9688Z" fill="white"/>
<path d="M13 7C10.7944 7 9 8.70895 9 10.8095C9 11.3355 9.4477 11.7619 10 11.7619C10.5523 11.7619 11 11.3355 11 10.8095C11 9.75924 11.8972 8.90476 13 8.90476C14.1028 8.90476 15 9.75924 15 10.8095C15 11.8598 14.1028 12.7143 13 12.7143C12.4477 12.7143 12 13.1407 12 13.6667V16.0476C12 16.5736 12.4477 17 13 17C13.5523 17 14 16.5736 14 16.0476V14.4985C15.7233 14.0746 17 12.5814 17 10.8095C17 8.70895 15.2056 7 13 7Z" fill="white"/>
</g>
<defs>
<clipPath id="clip0_170_2576">
<rect width="26" height="26" fill="white"/>
</clipPath>
</defs>
</svg>
