<svg width="10" height="16" viewBox="0 0 10 16" fill="none" xmlns="http://www.w3.org/2000/svg">
<path d="M9.22139 0.77914L9.22102 0.778783C8.83754 0.406405 8.20372 0.412538 7.84129 0.764483L1.08201 7.32814L1.08164 7.3285C0.992329 7.41505 0.922281 7.51705 0.87477 7.62827L0.414966 7.43186L0.874769 7.62828C0.827273 7.73946 0.803031 7.85811 0.803031 7.97758C0.803031 8.09704 0.827273 8.21569 0.874769 8.32688C0.922281 8.4381 0.992329 8.54011 1.08164 8.62666L1.08201 8.62702L7.84129 15.1907C8.02181 15.366 8.2697 15.467 8.53115 15.467C8.79261 15.467 9.0405 15.366 9.22102 15.1907L9.56934 15.5494L9.22102 15.1907C9.40104 15.0159 9.49938 14.7819 9.49938 14.5412C9.49938 14.3005 9.40105 14.0666 9.22102 13.8918L9.56603 13.5365L9.22102 13.8918L3.5073 8.34343L3.1379 7.98473L3.5073 7.62602L9.22102 2.07766L9.22139 2.0773C9.3107 1.99075 9.38075 1.88874 9.42826 1.77752C9.47576 1.66633 9.5 1.54768 9.5 1.42822C9.5 1.30876 9.47576 1.19011 9.42826 1.07892C9.38075 0.967697 9.3107 0.865692 9.22139 0.77914Z" fill="#333333" stroke="#333333"/>
</svg>
