<svg width="20" height="20" viewBox="0 0 20 20" fill="none" xmlns="http://www.w3.org/2000/svg">
<path fill-rule="evenodd" clip-rule="evenodd" d="M4 2.75C3.65509 2.75 3.33232 2.8798 3.10075 3.0985C2.87065 3.31583 2.75 3.60112 2.75 3.88889V17.1111C2.75 17.3989 2.87065 17.6842 3.10075 17.9015C3.33232 18.1202 3.65509 18.25 4 18.25H8C8.41421 18.25 8.75 18.5858 8.75 19C8.75 19.4142 8.41421 19.75 8 19.75H4C3.28405 19.75 2.5894 19.4818 2.07082 18.992C1.55078 18.5009 1.25 17.8253 1.25 17.1111V3.88889C1.25 3.17473 1.55078 2.49913 2.07082 2.00798C2.5894 1.51821 3.28405 1.25 4 1.25H8C8.41421 1.25 8.75 1.58579 8.75 2C8.75 2.41421 8.41421 2.75 8 2.75H4ZM13.4425 4.49828C13.7196 4.19039 14.1938 4.16544 14.5017 4.44253L19.5017 8.94253C19.6598 9.08476 19.75 9.28738 19.75 9.5C19.75 9.71261 19.6598 9.91524 19.5017 10.0575L14.5017 14.5575C14.1938 14.8346 13.7196 14.8096 13.4425 14.5017C13.1654 14.1938 13.1904 13.7196 13.4983 13.4425L16.49 10.75H7C6.58579 10.75 6.25 10.4142 6.25 10C6.25 9.58579 6.58579 9.25 7 9.25H17.6011L13.4983 5.55747C13.1904 5.28038 13.1654 4.80616 13.4425 4.49828Z" fill="#F22F2F"/>
</svg>
