<svg width="90" height="90" viewBox="0 0 90 90" fill="none" xmlns="http://www.w3.org/2000/svg">
<path d="M44.8672 78.0898H14.9667C13.1328 78.0898 11.6445 76.6014 11.6445 74.7677V14.9669C11.6445 13.133 13.133 11.6447 14.9667 11.6447H44.8672C46.7044 11.6447 48.1894 10.1597 48.1894 8.3225C48.1894 6.48531 46.7044 5 44.8672 5H14.9667C9.47172 5 5 9.47188 5 14.9669V74.7675C5 80.2625 9.47172 84.7342 14.9667 84.7342H44.8672C46.7044 84.7342 48.1894 83.2492 48.1894 81.412C48.1894 79.5748 46.7044 78.0898 44.8672 78.0898Z" fill="#F22F2F"/>
<path d="M84.01 42.5014L63.8106 22.5678C62.5083 21.2787 60.402 21.2954 59.113 22.6011C57.8239 23.9067 57.8372 26.0097 59.1463 27.2987L73.5814 41.5445H34.9003C33.0631 41.5445 31.5781 43.0295 31.5781 44.8667C31.5781 46.7039 33.0631 48.189 34.9003 48.189H73.5814L59.1463 62.4348C57.8373 63.7239 57.8273 65.8268 59.113 67.1325C59.7641 67.7903 60.6213 68.1225 61.4784 68.1225C62.3223 68.1225 63.1661 67.8036 63.8106 67.1656L84.01 47.232C84.6413 46.6075 85 45.7568 85 44.8665C85 43.9765 84.6445 43.1293 84.01 42.5014Z" fill="#F22F2F"/>
</svg>
