<svg width="151" height="40" viewBox="0 0 151 40" fill="none" xmlns="http://www.w3.org/2000/svg">
<path d="M32.6454 5.84906L27.2264 12.6792H26.5303L21.2807 5.79245V18.0943H17.367V0.490566C18.8534 0.490566 20.3775 0.490566 21.8639 0.490566L26.9818 7.24529L32.1185 0.490566H36.5591V18.0943H32.6454V5.84906Z" fill="#ED1C24"/>
<path d="M54.1717 18.0566H40.8125C40.8125 12.2075 40.8125 6.32074 40.8125 0.47168H53.8142V4.05659H44.6509V7.45281H53.3062V10.9056H44.6509V14.4339H54.1717V18.0566Z" fill="white"/>
<path fill-rule="evenodd" clip-rule="evenodd" d="M64.8009 0.47168C70.8408 0.47168 73.5314 4.54715 73.5314 9.13206C73.5314 13.7358 70.9349 18.0566 64.8009 18.0566C62.5995 18.0566 59.8147 18.0566 57.6133 18.0566V0.47168H64.8009ZM61.4517 14.4339H64.8009C68.6017 14.4339 69.6554 11.6226 69.6554 9.09432C69.6554 6.54715 68.4512 4.01885 64.8009 4.01885H61.4517V14.4339Z" fill="white"/>
<path d="M76.8242 18.0566V0.47168H80.7191V18.0566H76.8242Z" fill="white"/>
<path d="M100.102 15.9246C98.2955 17.717 95.9623 18.5095 93.3469 18.5095C86.6673 18.5095 83.9955 14.1887 83.9767 9.39626C83.9578 4.84909 86.9119 0.0566406 93.3469 0.0566406C95.7553 0.0566406 97.9944 1.00004 99.8007 2.77362L97.3359 5.22645C96.2822 4.18872 94.7581 3.75475 93.3469 3.75475C89.3768 3.75475 87.8151 6.84909 87.8339 9.41513C87.8715 11.9812 89.2451 14.8868 93.3469 14.8868C94.7581 14.8868 96.6209 14.2642 97.6745 13.2076L100.102 15.9246Z" fill="white"/>
<path fill-rule="evenodd" clip-rule="evenodd" d="M115.211 15.0377H106.217L104.937 18.0566H100.723L108.588 0.47168H112.859L120.724 18.0566H116.49L115.211 15.0377ZM110.733 4.43394L107.684 11.566H113.724L110.733 4.43394Z" fill="white"/>
<path d="M126.836 0.47168V14.4717H135.623V18.0566H122.922V0.47168H126.836Z" fill="white"/>
<path fill-rule="evenodd" clip-rule="evenodd" d="M45.6863 39.453H41.9796L38.16 34.5096H35.7327V39.453H32.4023V24.4341C34.8484 24.4341 37.0875 24.4341 39.4959 24.4341C43.1273 24.4341 45.0465 26.868 45.0465 29.4907C45.0277 31.453 44.4444 33.1888 41.5844 34.2265L45.6863 39.1888V39.453ZM35.7327 27.3209V31.6982H39.5523C41.0952 31.6982 41.7538 30.5284 41.7538 29.585C41.735 28.5662 41.0576 27.3209 39.4959 27.3209H35.7327Z" fill="#ED1C24"/>
<path d="M59.6094 39.453H48.207C48.207 34.453 48.207 29.4341 48.207 24.4341H59.3083V27.5096H51.481V30.3963H58.8568V33.3397H51.481V36.3586H59.6094V39.453Z" fill="white"/>
<path d="M75.282 37.6226C73.7391 39.1509 71.7634 39.8302 69.5243 39.8302C63.8231 39.8302 61.5464 36.1509 61.5276 32.0566C61.5088 28.1698 64.0301 24.0943 69.5243 24.0943C71.5941 24.0943 73.4945 24.8868 75.0373 26.4151L72.93 28.4906C72.0268 27.6038 70.7285 27.2453 69.5243 27.2453C66.1375 27.2453 64.8016 29.8868 64.8204 32.0755C64.858 34.2642 66.0246 36.7547 69.5243 36.7547C70.7285 36.7547 72.3091 36.2076 73.2122 35.3208L75.282 37.6226Z" fill="white"/>
<path fill-rule="evenodd" clip-rule="evenodd" d="M88.1901 36.868H80.5133L79.4219 39.453H75.8281L82.5454 24.4341H86.1768L92.894 39.453H89.2814L88.1901 36.868ZM84.3517 27.8114L81.7739 33.9058H86.9294L84.3517 27.8114Z" fill="white"/>
<path d="M98.1038 24.4341V36.3775H105.593V39.453H94.7734V24.4341H98.1038Z" fill="white"/>
<path d="M111.241 24.4341V36.3775H118.729V39.453H107.91V24.4341H111.241Z" fill="white"/>
<path d="M125.293 33.2076L133.685 23.0755C133.685 23.0755 134.193 25.7925 134.437 27.1132C134.513 27.151 134.532 27.1698 134.55 27.1698C136.752 26.8113 138.953 26.3962 140.797 24.9812C144.015 22.5472 145.576 19.3019 145.219 15.2453C144.73 9.88681 140.383 5.79247 135.021 5.56605C134.889 5.54719 134.738 5.54719 134.626 5.54719C140.139 5.01888 147.458 8.54719 149.716 16.2076C151.071 20.8491 150.337 25.2076 147.552 29.1698C144.786 33.1321 140.816 35.0378 136.074 35.5661C136.338 36.9812 136.846 39.6604 136.846 39.6604L125.293 33.2076Z" fill="#27AAE1"/>
<path d="M14.7712 5.88672L14.7523 19.0377C14.7523 19.0377 12.6262 17.2829 11.5913 16.415C11.5348 16.4339 11.4972 16.4339 11.4784 16.4339C9.99195 18.132 8.58077 19.8679 8.05393 22.132C7.11314 26.0565 7.99748 29.5471 10.8387 32.4339C14.6018 36.2641 20.5664 36.6414 24.8376 33.3962C24.9505 33.3207 25.0822 33.2264 25.1763 33.1509C21.2438 37.0943 13.3788 39.0565 6.75564 34.5848C2.76669 31.8867 0.565246 28.0377 0.18893 23.2263C-0.187386 18.3962 1.65656 14.3773 4.96814 10.9433C3.85801 10.0188 1.76946 8.28295 1.76946 8.28295L14.7712 5.88672Z" fill="#27AAE1"/>
</svg>
