<svg width="61" height="40" viewBox="0 0 61 40" fill="none" xmlns="http://www.w3.org/2000/svg">
<path d="M3.12821 0H57.8718C59.5995 0 61 1.40961 61 3.14839V36.2065C61 37.9453 59.5995 39.3548 57.8718 39.3548H3.12821C1.40058 39.3548 0 37.9453 0 36.2065V3.14839C0 1.40961 1.40058 0 3.12821 0Z" fill="black"/>
<g clip-path="url(#clip0_170_4248)">
<path d="M20.0421 33.3943V31.6575C20.0421 30.9932 19.6491 30.5582 18.9745 30.5582C18.6371 30.5582 18.2704 30.6728 18.0182 31.0505C17.8217 30.7335 17.5401 30.5582 17.1176 30.5582C16.836 30.5582 16.5543 30.6458 16.3317 30.9628V30.6155H15.7422V33.3943H16.3317V31.8599C16.3317 31.3675 16.5838 31.1348 16.9768 31.1348C17.3698 31.1348 17.5663 31.3945 17.5663 31.8599V33.3943H18.1557V31.8599C18.1557 31.3675 18.4374 31.1348 18.8009 31.1348C19.1939 31.1348 19.3904 31.3945 19.3904 31.8599V33.3943H20.0421ZM28.7859 30.6155H27.8296V29.7758H27.2402V30.6155H26.7064V31.1652H27.2402V32.4399C27.2402 33.0773 27.4923 33.4516 28.1669 33.4516C28.4191 33.4516 28.7007 33.3639 28.8972 33.2493L28.7269 32.7266C28.5566 32.8412 28.3601 32.8716 28.2193 32.8716C27.9377 32.8716 27.8263 32.6962 27.8263 32.4096V31.1652H28.7826V30.6155H28.7859ZM33.7898 30.5548C33.4525 30.5548 33.2266 30.7301 33.0857 30.9595V30.6121H32.4963V33.3909H33.0857V31.8261C33.0857 31.3641 33.2822 31.1011 33.649 31.1011C33.7604 31.1011 33.9012 31.1314 34.0158 31.1584L34.1861 30.5784C34.0682 30.5548 33.9012 30.5548 33.7898 30.5548ZM26.2282 30.8448C25.9466 30.6425 25.5536 30.5548 25.1312 30.5548C24.4565 30.5548 24.0079 30.9021 24.0079 31.4518C24.0079 31.9138 24.3452 32.1769 24.9347 32.2612L25.2163 32.2915C25.5241 32.3489 25.6944 32.4365 25.6944 32.5815C25.6944 32.7839 25.4685 32.9289 25.0755 32.9289C24.6825 32.9289 24.3714 32.7839 24.1749 32.6389L23.8933 33.1009C24.2011 33.3336 24.6236 33.4482 25.046 33.4482C25.832 33.4482 26.2839 33.0705 26.2839 32.5512C26.2839 32.0588 25.9171 31.7992 25.3571 31.7115L25.0755 31.6811C24.8233 31.6508 24.6268 31.5935 24.6268 31.4215C24.6268 31.2191 24.8233 31.1045 25.1344 31.1045C25.4717 31.1045 25.809 31.2495 25.9793 31.3372L26.2282 30.8448ZM41.9114 30.5548C41.5741 30.5548 41.3482 30.7301 41.2073 30.9595V30.6121H40.6179V33.3909H41.2073V31.8261C41.2073 31.3641 41.4038 31.1011 41.7706 31.1011C41.882 31.1011 42.0228 31.1314 42.1374 31.1584L42.3077 30.5851C42.1931 30.5548 42.0261 30.5548 41.9114 30.5548ZM34.3793 32.0049C34.3793 32.8446 34.9426 33.4516 35.8137 33.4516C36.2067 33.4516 36.4883 33.3639 36.7699 33.1346L36.4883 32.6422C36.2623 32.8176 36.0396 32.9019 35.7842 32.9019C35.3061 32.9019 34.9688 32.5546 34.9688 32.0049C34.9688 31.4822 35.3061 31.1348 35.7842 31.1078C36.0364 31.1078 36.2623 31.1955 36.4883 31.3675L36.7699 30.8752C36.4883 30.6425 36.2067 30.5582 35.8137 30.5582C34.9426 30.5548 34.3793 31.1652 34.3793 32.0049ZM39.8319 32.0049V30.6155H39.2424V30.9628C39.0459 30.7032 38.7643 30.5582 38.3975 30.5582C37.6378 30.5582 37.0483 31.1652 37.0483 32.0049C37.0483 32.8446 37.6378 33.4516 38.3975 33.4516C38.7905 33.4516 39.0721 33.3066 39.2424 33.0469V33.3943H39.8319V32.0049ZM37.6672 32.0049C37.6672 31.5125 37.9751 31.1078 38.4827 31.1078C38.9608 31.1078 39.2981 31.4855 39.2981 32.0049C39.2981 32.4972 38.9608 32.9019 38.4827 32.9019C37.9783 32.8716 37.6672 32.4939 37.6672 32.0049ZM30.6132 30.5548C29.8273 30.5548 29.264 31.1348 29.264 32.0015C29.264 32.8716 29.8273 33.4482 30.6427 33.4482C31.0357 33.4482 31.4287 33.3336 31.7398 33.0705L31.4581 32.6355C31.2322 32.8109 30.9505 32.9255 30.6722 32.9255C30.3054 32.9255 29.9419 32.7502 29.8567 32.2612H31.8511C31.8511 32.1735 31.8511 32.1162 31.8511 32.0285C31.8773 31.1348 31.3697 30.5548 30.6132 30.5548ZM30.6132 31.0775C30.98 31.0775 31.2322 31.3102 31.2879 31.7418H29.8829C29.9386 31.3675 30.1908 31.0775 30.6132 31.0775ZM45.2583 32.0049V29.5161H44.6688V30.9628C44.4724 30.7032 44.1907 30.5582 43.8239 30.5582C43.0642 30.5582 42.4747 31.1652 42.4747 32.0049C42.4747 32.8446 43.0642 33.4516 43.8239 33.4516C44.2169 33.4516 44.4986 33.3066 44.6688 33.0469V33.3943H45.2583V32.0049ZM43.0936 32.0049C43.0936 31.5125 43.4015 31.1078 43.9091 31.1078C44.3872 31.1078 44.7245 31.4855 44.7245 32.0049C44.7245 32.4972 44.3872 32.9019 43.9091 32.9019C43.4015 32.8716 43.0936 32.4939 43.0936 32.0049ZM23.3595 32.0049V30.6155H22.77V30.9628C22.5735 30.7032 22.2919 30.5582 21.9251 30.5582C21.1653 30.5582 20.5759 31.1652 20.5759 32.0049C20.5759 32.8446 21.1653 33.4516 21.9251 33.4516C22.3181 33.4516 22.5997 33.3066 22.77 33.0469V33.3943H23.3595V32.0049ZM21.1686 32.0049C21.1686 31.5125 21.4764 31.1078 21.984 31.1078C22.4622 31.1078 22.7995 31.4855 22.7995 32.0049C22.7995 32.4972 22.4622 32.9019 21.984 32.9019C21.4764 32.8716 21.1686 32.4939 21.1686 32.0049Z" fill="white"/>
<path d="M36.4168 9.83887H26.5781V25.5808H36.4168V9.83887Z" fill="#FF5A00"/>
<path d="M27.3145 17.7098C27.3145 14.5671 28.9592 11.7779 31.4831 9.97575C29.6257 8.66392 27.2826 7.87109 24.7268 7.87109C18.6723 7.87109 13.7734 12.2714 13.7734 17.7098C13.7734 23.1482 18.6723 27.5485 24.7268 27.5485C27.2826 27.5485 29.6257 26.7557 31.4831 25.4439C28.9557 23.6672 27.3145 20.8525 27.3145 17.7098Z" fill="#EB001B"/>
<path d="M49.1941 17.7098C49.1941 23.1482 44.2952 27.5485 38.2407 27.5485C35.6849 27.5485 33.3418 26.7557 31.4844 25.4439C34.0402 23.6385 35.653 20.8525 35.653 17.7098C35.653 14.5671 34.0083 11.7779 31.4844 9.97575C33.3383 8.66392 35.6814 7.87109 38.2372 7.87109C44.2952 7.87109 49.1941 12.3001 49.1941 17.7098Z" fill="#F79E1B"/>
</g>
<defs>
<clipPath id="clip0_170_4248">
<rect width="37" height="27" fill="white" transform="translate(13 7)"/>
</clipPath>
</defs>
</svg>
