<svg width="227" height="60" viewBox="0 0 227 60" fill="none" xmlns="http://www.w3.org/2000/svg">
<g clip-path="url(#clip0_170_3048)">
<path d="M48.1882 8.21865L40.1412 18.6945H39.1074L31.3118 8.13183V27H25.5V0C27.7074 0 29.9706 0 32.1779 0L39.7779 10.3601L47.4059 0H54V27H48.1882V8.21865Z" fill="#ED1C24"/>
<path d="M81 27H61.5C61.5 18.0193 61.5 8.98069 61.5 0H80.4782V5.50429H67.1028V10.7189H79.7366V16.0204H67.1028V21.4378H81V27Z" fill="#333333"/>
<path fill-rule="evenodd" clip-rule="evenodd" d="M97.8369 0C106.943 0 111 6.25751 111 13.2972C111 20.3659 107.085 27 97.8369 27C94.5177 27 90.3191 27 87 27V0H97.8369ZM92.7872 21.4378H97.8369C103.567 21.4378 105.156 17.1212 105.156 13.2393C105.156 9.32833 103.34 5.44635 97.8369 5.44635H92.7872V21.4378Z" fill="#333333"/>
<path d="M115.5 27V0H121.5V27H115.5Z" fill="#333333"/>
<path d="M150 23.2178C147.312 25.8405 143.839 27 139.946 27C130.005 27 126.028 20.6779 126 13.6656C125.972 7.01227 130.369 0 139.946 0C143.531 0 146.864 1.38037 149.552 3.97546L145.883 7.56442C144.315 6.04601 142.047 5.41104 139.946 5.41104C134.037 5.41104 131.713 9.93865 131.741 13.6933C131.797 17.4479 133.841 21.6994 139.946 21.6994C142.047 21.6994 144.819 20.7883 146.387 19.2423L150 23.2178Z" fill="#333333"/>
<path fill-rule="evenodd" clip-rule="evenodd" d="M173.231 22.3648H159.741L157.822 27H151.5L163.297 0H169.703L181.5 27H175.15L173.231 22.3648ZM166.514 6.08369L161.942 17.0343H171.001L166.514 6.08369Z" fill="#333333"/>
<path d="M190.509 0V21.4957H204V27H184.5V0H190.509Z" fill="#333333"/>
<path fill-rule="evenodd" clip-rule="evenodd" d="M69 58.5H63.5588L57.9518 51.0942H54.3888V58.5H49.5V36C53.0907 36 56.3775 36 59.9129 36C65.2436 36 68.0609 39.6464 68.0609 43.5754C68.0333 46.5151 67.1771 49.1156 62.9788 50.6702L69 58.1043V58.5ZM54.3888 40.3247V46.8825H59.9957C62.2606 46.8825 63.2273 45.13 63.2273 43.7167C63.1997 42.1903 62.2054 40.3247 59.9129 40.3247H54.3888Z" fill="#ED1C24"/>
<path d="M88.5 58.5H72C72 51.0094 72 43.4906 72 36H88.0644V40.6074H76.7376V44.9322H87.4109V49.3417H76.7376V53.8643H88.5V58.5Z" fill="#333333"/>
<path d="M114 56.6331C111.644 58.964 108.628 60 105.209 60C96.5049 60 93.0289 54.3885 93.0002 48.1439C92.9714 42.2158 96.8209 36 105.209 36C108.369 36 111.271 37.2086 113.627 39.5396L110.409 42.705C109.03 41.3525 107.048 40.8058 105.209 40.8058C100.038 40.8058 97.9988 44.8345 98.0275 48.1727C98.0849 51.5108 99.866 55.3094 105.209 55.3094C107.048 55.3094 109.461 54.4748 110.84 53.1223L114 56.6331Z" fill="#333333"/>
<path fill-rule="evenodd" clip-rule="evenodd" d="M132.471 54.6275H121.001L119.37 58.5H114L124.037 36H129.463L139.5 58.5H134.102L132.471 54.6275ZM126.736 41.0597L122.884 50.1897H130.588L126.736 41.0597Z" fill="#333333"/>
<path d="M147.579 36V53.8926H159V58.5H142.5V36H147.579Z" fill="#333333"/>
<path d="M167.079 36V53.8926H178.5V58.5H162V36H167.079Z" fill="#333333"/>
<path d="M189 48.8674L201.546 33.7426C201.546 33.7426 202.305 37.7984 202.671 39.77C202.784 39.8264 202.812 39.8545 202.84 39.8545C206.131 39.3194 209.422 38.6997 212.179 36.5873C216.989 32.954 219.324 28.1096 218.79 22.054C218.058 14.055 211.56 7.94315 203.543 7.60516C203.346 7.577 203.121 7.577 202.952 7.577C211.195 6.78837 222.137 12.0553 225.513 23.4904C227.538 30.4191 226.441 36.9253 222.278 42.84C218.143 48.7548 212.207 51.5995 205.118 52.3881C205.512 54.5005 206.272 58.5 206.272 58.5L189 48.8674Z" fill="#27AAE1"/>
<path d="M21.9145 9L21.8864 28.5617C21.8864 28.5617 18.7016 25.9516 17.1515 24.6606C17.067 24.6886 17.0106 24.6886 16.9824 24.6886C14.7559 27.2145 12.6422 29.7966 11.853 33.1644C10.4439 39.0021 11.7685 44.1942 16.0242 48.4882C21.6609 54.1855 30.595 54.7468 36.9927 49.9196C37.1618 49.8073 37.3591 49.667 37.5 49.5547C31.6097 55.4204 19.829 58.3392 9.90838 51.6877C3.93349 47.6743 0.636024 41.949 0.0723542 34.7922C-0.491315 27.6075 2.27066 21.6295 7.23095 16.5216C5.56813 15.1464 2.43977 12.5643 2.43977 12.5643L21.9145 9Z" fill="#27AAE1"/>
</g>
<defs>
<clipPath id="clip0_170_3048">
<rect width="226.5" height="60" fill="white"/>
</clipPath>
</defs>
</svg>
