<svg width="17" height="17" viewBox="0 0 17 17" fill="none" xmlns="http://www.w3.org/2000/svg">
<path d="M16.5464 6.54343C16.4133 6.12726 16.0605 5.82471 15.6353 5.76155L11.3283 5.12327L9.40368 1.15722C9.02261 0.373048 7.76314 0.373048 7.38206 1.15722L5.45748 5.12327L1.16066 5.76155C0.736686 5.82471 0.383805 6.12832 0.250784 6.54467C0.117762 6.95978 0.228299 7.41635 0.536031 7.72208L3.65244 10.82L2.91727 15.1907C2.84514 15.6219 3.01881 16.0589 3.36598 16.3164C3.71436 16.5728 4.17553 16.6063 4.55435 16.4027L8.39226 14.3386L12.2416 16.4027C12.4063 16.4913 12.5867 16.535 12.7659 16.535C12.9992 16.535 13.2326 16.4602 13.43 16.3166C13.7773 16.0578 13.9508 15.6221 13.8787 15.1909L13.1447 10.8201L16.2611 7.72225C16.5689 7.4174 16.6794 6.95978 16.5464 6.54343Z" fill="#F4CD23"/>
</svg>
