<svg width="61" height="60" viewBox="0 0 61 60" fill="none" xmlns="http://www.w3.org/2000/svg">
<path d="M49.9823 41.25H46.3203V37.6172C46.3234 37.4803 46.2992 37.3441 46.2492 37.2167C46.1991 37.0892 46.1242 36.973 46.0287 36.8748C45.9332 36.7767 45.8192 36.6985 45.6932 36.6448C45.5672 36.5912 45.4317 36.5632 45.2948 36.5625H42.0136C41.7309 36.5617 41.4592 36.6717 41.2566 36.8688C41.054 37.066 40.9366 37.3346 40.9297 37.6172V41.25H37.2089C36.9262 41.2492 36.6545 41.3592 36.4519 41.5563C36.2493 41.7535 36.132 42.0221 36.125 42.3047V45.5859C36.132 45.8685 36.2493 46.1372 36.4519 46.3343C36.6545 46.5314 36.9262 46.6414 37.2089 46.6406H40.9297V50.3906C40.9366 50.6732 41.054 50.9418 41.2566 51.139C41.4592 51.3361 41.7309 51.4461 42.0136 51.4453H45.2948C45.4317 51.4446 45.5672 51.4166 45.6932 51.363C45.8192 51.3093 45.9332 51.2312 46.0287 51.133C46.1242 51.0348 46.1991 50.9186 46.2492 50.7911C46.2992 50.6637 46.3234 50.5275 46.3203 50.3906V46.6406H49.9823C50.1192 46.6399 50.2547 46.6119 50.3807 46.5583C50.5067 46.5047 50.6207 46.4265 50.7162 46.3283C50.8117 46.2301 50.8866 46.1139 50.9367 45.9865C50.9867 45.859 51.0109 45.7228 51.0078 45.5859V42.3047C51.0109 42.1678 50.9867 42.0316 50.9367 41.9042C50.8866 41.7767 50.8117 41.6605 50.7162 41.5623C50.6207 41.4642 50.5067 41.386 50.3807 41.3323C50.2547 41.2787 50.1192 41.2507 49.9823 41.25ZM49.3672 45H45.7636C45.4809 44.9992 45.2092 45.1092 45.0066 45.3063C44.804 45.5035 44.6866 45.7721 44.6797 46.0547V49.8047H42.5703V46.0547C42.5734 45.9178 42.5492 45.7816 42.4992 45.6542C42.4491 45.5267 42.3742 45.4105 42.2787 45.3123C42.1832 45.2142 42.0692 45.136 41.9432 45.0823C41.8172 45.0287 41.6817 45.0007 41.5448 45H37.7656V42.8906H41.5448C41.6817 42.8899 41.8172 42.8619 41.9432 42.8083C42.0692 42.7547 42.1832 42.6765 42.2787 42.5783C42.3742 42.4801 42.4491 42.3639 42.4992 42.2365C42.5492 42.109 42.5734 41.9728 42.5703 41.8359V38.2031H44.6797V41.8359C44.6866 42.1185 44.804 42.3872 45.0066 42.5843C45.2092 42.7814 45.4809 42.8914 45.7636 42.8906H49.3672V45Z" fill="#E41B2C"/>
<path d="M43.8395 29.667C41.5734 29.6676 39.3412 30.2165 37.3333 31.2667C35.3253 32.3169 33.6013 33.8373 32.3082 35.6982C32.0873 35.6302 31.8782 35.5641 31.6811 35.4999L30.885 33.2417C33.3459 31.398 34.02 28.519 34.2039 27.1245C35.8589 26.6755 37.3787 24.731 37.9876 22.1542C38.3157 20.7605 37.8352 19.4629 36.7916 18.9251C36.5023 18.7762 36.1817 18.6984 35.8564 18.6982C35.9103 18.2938 35.9666 17.7992 36.0248 17.1918C36.161 15.7707 36.2475 14.3352 36.2475 13.9715C36.2475 13.7137 36.2526 13.4479 36.258 13.1665C36.3015 10.9225 36.3555 8.12991 33.8803 5.62632C31.6589 3.3796 28.514 2.14104 25.2533 2.23116C22.005 2.31999 18.9589 3.70608 16.8959 6.03401C16.8327 6.10565 16.7684 6.17776 16.703 6.25034C15.4588 7.64065 13.7545 9.54483 13.8768 14.4211C13.8886 14.8984 14.3456 17.0858 14.8189 18.753C14.543 18.7804 14.2754 18.863 14.0321 18.996C13.0303 19.5374 12.5709 20.8066 12.8889 22.1543C13.4983 24.7356 15.023 26.6824 16.6817 27.1265C16.88 28.4941 17.5741 31.3445 19.9722 33.1898L18.9219 35.3498C18.1719 35.5848 17.3266 35.8177 16.4541 36.0621C10.8152 37.6426 3.07812 39.807 3.07812 46.8386V54.1907C3.07812 55.9275 4.00707 57.7735 5.67453 57.7735H43.8886C43.8962 57.7735 43.9036 57.7725 43.9111 57.7723C47.6303 57.7509 51.1893 56.2561 53.8083 53.6153C56.4273 50.9745 57.8926 47.4032 57.8831 43.6839C57.8736 39.9647 56.3902 36.4009 53.7577 33.7735C51.1253 31.1461 47.5587 29.6694 43.8395 29.667ZM17.9258 7.34405C17.9928 7.26921 18.0589 7.19499 18.1242 7.12139C19.8871 5.13178 22.502 3.9469 25.2983 3.8705C28.1081 3.79245 30.8104 4.85393 32.7138 6.77921C34.702 8.79003 34.6573 11.0978 34.618 13.1339C34.6123 13.4236 34.6071 13.6973 34.6071 13.9708C34.6071 14.1447 34.5895 14.5055 34.5595 14.9645C34.1628 13.4899 33.6082 12.0658 32.8445 11.233L32.7838 11.1116C32.7145 10.973 32.6074 10.8569 32.4748 10.7767C32.3423 10.6964 32.1898 10.6553 32.0349 10.6582C31.88 10.6611 31.729 10.7077 31.5995 10.7928C31.4701 10.8779 31.3673 10.9979 31.3032 11.1389C29.9814 14.0462 28.6721 13.9292 26.503 13.7357C26.2511 13.7132 25.995 13.6903 25.7346 13.6723C24.9092 13.6137 24.6106 14.096 24.5205 14.3051C24.2531 14.9262 24.6247 15.5969 25.305 16.3921C23.1395 16.1336 22.5905 14.5497 22.096 13.1209C21.7528 12.1293 21.3638 11.0052 20.2327 11.0052C19.6877 10.9945 19.1467 11.1006 18.6461 11.3163C18.1454 11.532 17.6967 11.8523 17.3301 12.2557C16.4895 13.1581 16.0159 14.4446 15.7522 15.7053C15.6455 15.2688 15.5672 14.826 15.5178 14.3794C15.4108 10.1541 16.7469 8.66112 17.9258 7.34405ZM18.2477 26.3687C18.2378 26.1574 18.1472 25.958 17.9946 25.8115C17.8419 25.665 17.6389 25.5827 17.4274 25.5815C17.4157 25.5815 17.4039 25.5815 17.3916 25.5815C16.1902 25.5815 14.9217 23.6216 14.4854 21.777C14.3184 21.0692 14.5377 20.5872 14.812 20.4388C15.1222 20.2715 15.453 20.5662 15.5807 20.7008C15.688 20.8138 15.8251 20.8938 15.9762 20.9317C16.1272 20.9695 16.2859 20.9636 16.4337 20.9146C16.5815 20.8656 16.7123 20.7755 16.8108 20.6549C16.9093 20.5344 16.9715 20.3882 16.99 20.2336C17.0709 20.0929 17.1079 19.9313 17.0966 19.7694C17.0094 18.5112 17.0974 14.9093 18.5309 13.3731C18.7337 13.1482 18.9808 12.9676 19.2567 12.8428C19.5325 12.718 19.8313 12.6515 20.1341 12.6477C20.2573 12.8257 20.4219 13.3009 20.5453 13.6578C21.1532 15.4142 22.2848 18.6828 27.2995 17.9673C27.4532 17.9454 27.5976 17.8803 27.7158 17.7795C27.834 17.6788 27.9211 17.5466 27.9671 17.3982C28.0131 17.2499 28.0161 17.0916 27.9757 16.9416C27.9352 16.7917 27.8531 16.6563 27.7387 16.5512C27.341 16.1856 26.9636 15.7987 26.608 15.392C28.5365 15.5595 30.5037 15.6225 32.1296 13.0642C33.1571 14.9912 33.6921 18.8232 33.8231 20.3448C33.8407 20.5493 33.9343 20.7398 34.0854 20.8786C34.2366 21.0175 34.4343 21.0946 34.6395 21.0948C34.663 21.0948 34.6864 21.0938 34.7107 21.0917C34.8593 21.0789 35.0016 21.0259 35.1222 20.9382C35.2429 20.8506 35.3374 20.7317 35.3955 20.5943C35.5575 20.4342 35.8045 20.2615 36.04 20.3826C36.341 20.5376 36.558 21.0665 36.3908 21.7771C35.9547 23.6221 34.6863 25.5818 33.4845 25.5818H33.464C33.3048 25.5792 33.1482 25.6227 33.0131 25.707C32.8985 25.7785 32.8034 25.8772 32.7362 25.9944C32.6691 26.1116 32.632 26.2436 32.6284 26.3786C32.5932 27.0494 32.2755 30.4793 29.4806 32.2164C29.476 32.2191 29.4718 32.2221 29.4673 32.2249C28.3791 32.8963 27.0235 33.2369 25.4381 33.2369C23.857 33.2369 22.5044 32.8886 21.4174 32.2014C18.6622 30.4617 18.2936 27.0375 18.2477 26.3687ZM20.2435 36.3833L21.3802 34.0462C22.5574 34.5976 23.9176 34.8773 25.4382 34.8773C26.9368 34.8773 28.2789 34.6117 29.4437 34.0883L30.267 36.4238C30.3082 36.5408 30.3755 36.6469 30.4636 36.7342C30.5518 36.8215 30.6586 36.8876 30.776 36.9277C30.9804 36.9974 31.1967 37.0685 31.4251 37.1411C31.0231 37.8959 30.6913 38.6861 30.4339 39.5017C29.6748 40.4008 28.0816 41.776 25.4382 41.776C24.5462 41.7856 23.6621 41.6071 22.8438 41.2521C22.0254 40.8971 21.291 40.3735 20.6886 39.7156C19.8233 38.7874 19.3336 37.7528 19.1684 36.9908C19.3696 36.9291 19.5669 36.8672 19.7595 36.8046C19.8644 36.7705 19.9612 36.7156 20.0444 36.6433C20.1275 36.5709 20.1953 36.4825 20.2435 36.3833ZM4.71875 54.1907V46.8386C4.71875 41.051 11.4775 39.1608 16.8966 37.6419C17.126 37.5776 17.3593 37.5142 17.5824 37.4513C18.176 39.9448 20.8498 43.4161 25.434 43.4161C27.0049 43.4359 28.5475 42.9965 29.8721 42.1517C29.5587 44.9539 30.0953 47.7857 31.4123 50.279C32.7292 52.7723 34.7655 54.8119 37.2567 56.1328H5.67453C5.15234 56.1328 4.71875 55.0888 4.71875 54.1907ZM43.8395 56.1328C41.3845 56.1328 38.9847 55.4048 36.9435 54.0409C34.9023 52.677 33.3114 50.7384 32.3719 48.4703C31.4324 46.2023 31.1866 43.7065 31.6656 41.2988C32.1445 38.891 33.3267 36.6793 35.0626 34.9434C36.7985 33.2075 39.0102 32.0253 41.418 31.5463C43.8258 31.0674 46.3215 31.3132 48.5896 32.2527C50.8577 33.1921 52.7962 34.783 54.1601 36.8242C55.524 38.8655 56.252 41.2653 56.2521 43.7202C56.2484 47.0111 54.9395 50.1662 52.6125 52.4932C50.2854 54.8202 47.1304 56.1292 43.8395 56.1328Z" fill="#27AAE1"/>
<circle cx="43.5" cy="43.5" r="13.5" fill="white" stroke="#E31E24" stroke-width="2"/>
<path d="M42.5057 49.7568V38.0381H44.4943V49.7568H42.5057ZM37.6406 44.8918V42.9031H49.3594V44.8918H37.6406Z" fill="#E31E24"/>
</svg>
