<svg width="57" height="60" viewBox="0 0 57 60" fill="none" xmlns="http://www.w3.org/2000/svg">
<path d="M52.875 3.75H48.1875V2.8125C48.1875 1.26176 46.9257 0 45.375 0C43.8243 0 42.5625 1.26176 42.5625 2.8125V3.75H14.4375V2.8125C14.4375 1.26176 13.1757 0 11.625 0C10.0743 0 8.8125 1.26176 8.8125 2.8125V3.75H4.125C2.05723 3.75 0.375 5.43223 0.375 7.5V46.875C0.375 48.9428 2.05723 50.625 4.125 50.625H12.5625C13.0802 50.625 13.5 50.2052 13.5 49.6875C13.5 49.1698 13.0802 48.75 12.5625 48.75H4.125C3.09117 48.75 2.25 47.9088 2.25 46.875V15H54.75V46.875C54.75 47.9088 53.9088 48.75 52.875 48.75H44.4375C43.9198 48.75 43.5 49.1698 43.5 49.6875C43.5 50.2052 43.9198 50.625 44.4375 50.625H52.875C54.9428 50.625 56.625 48.9428 56.625 46.875C56.625 45.1593 56.625 9.38391 56.625 7.5C56.625 5.43223 54.9428 3.75 52.875 3.75ZM44.4375 2.8125C44.4375 2.29559 44.8581 1.875 45.375 1.875C45.8919 1.875 46.3125 2.29559 46.3125 2.8125V7.5C46.3125 8.01691 45.8919 8.4375 45.375 8.4375C44.8581 8.4375 44.4375 8.01691 44.4375 7.5V2.8125ZM10.6875 2.8125C10.6875 2.29559 11.1081 1.875 11.625 1.875C12.1419 1.875 12.5625 2.29559 12.5625 2.8125V7.5C12.5625 8.01691 12.1419 8.4375 11.625 8.4375C11.1081 8.4375 10.6875 8.01691 10.6875 7.5V2.8125ZM2.25 13.125V7.5C2.25 6.46617 3.09117 5.625 4.125 5.625H8.8125V7.5C8.8125 9.05074 10.0743 10.3125 11.625 10.3125C13.1757 10.3125 14.4375 9.05074 14.4375 7.5V5.625H42.5625V7.5C42.5625 9.05074 43.8243 10.3125 45.375 10.3125C46.9257 10.3125 48.1875 9.05074 48.1875 7.5V5.625H52.875C53.9088 5.625 54.75 6.46617 54.75 7.5V13.125H2.25Z" fill="#27AAE1"/>
<path d="M39.75 47.4243V41.25C39.75 36.2479 36.4682 31.9986 31.9448 30.5401C33.0127 28.0523 31.1701 25.3125 28.5 25.3125C25.8257 25.3125 23.9893 28.057 25.0552 30.5401C20.5318 31.9986 17.25 36.2479 17.25 41.25V47.4243C17.25 48.0288 17.0146 48.5972 16.5871 49.0246C15.8054 49.8062 15.375 50.8454 15.375 51.9509V53.4375C15.375 53.9552 15.7948 54.375 16.3125 54.375H23.9078C23.3126 57.2952 25.5568 60 28.5 60C31.4447 60 33.6871 57.2933 33.0922 54.375H40.6875C41.2052 54.375 41.625 53.9552 41.625 53.4375V51.9507C41.625 50.8453 41.1946 49.8061 40.4129 49.0245C39.9854 48.5971 39.75 48.0288 39.75 47.4243ZM28.5 27.1875C30.0095 27.1875 30.8863 28.8831 30.0555 30.108C29.0195 29.9641 27.9818 29.9639 26.9446 30.108C26.1139 28.8834 26.9902 27.1875 28.5 27.1875ZM28.5 58.125C26.5736 58.125 25.2 56.2146 25.8489 54.375H31.1512C31.7995 56.2134 30.4276 58.125 28.5 58.125ZM39.75 52.5H17.25C17.25 51.7993 17.19 51.0732 17.9129 50.3504C18.6946 49.5688 19.125 48.5296 19.125 47.4241V41.25C19.125 36.0806 23.3306 31.875 28.5 31.875C33.6694 31.875 37.875 36.0806 37.875 41.25V47.4243C37.875 48.5297 38.3054 49.5689 39.0871 50.3505C39.8129 51.0762 39.75 51.8303 39.75 52.5Z" fill="#E41B2C"/>
</svg>
