<svg width="10" height="11" viewBox="0 0 10 11" fill="none" xmlns="http://www.w3.org/2000/svg">
<path fill-rule="evenodd" clip-rule="evenodd" d="M0.201194 9.32973C-0.0665323 9.5975 -0.0664911 10.0315 0.201276 10.2992C0.469043 10.5669 0.903137 10.5669 1.17086 10.2992L5.00009 6.46956L8.82963 10.2988C9.09736 10.5665 9.53148 10.5665 9.79921 10.2988C10.0669 10.0311 10.0669 9.59702 9.79921 9.32932L5.96959 5.49999L9.79893 1.67026C10.0666 1.40251 10.0666 0.968453 9.79879 0.700754C9.53107 0.433048 9.09695 0.433089 8.82922 0.700836L4.99995 4.53049L1.17039 0.701165C0.90265 0.433445 0.46855 0.433445 0.20081 0.701165C-0.0669367 0.968892 -0.0669367 1.40295 0.20081 1.67068L4.03051 5.50006L0.201194 9.32973Z" fill="#ED1C24"/>
</svg>
