<svg width="18" height="12" viewBox="0 0 18 12" fill="none" xmlns="http://www.w3.org/2000/svg">
<path fill-rule="evenodd" clip-rule="evenodd" d="M11.7759 9.47507C11.6811 9.56325 11.6051 9.66958 11.5524 9.78772C11.4997 9.90587 11.4714 10.0334 11.4691 10.1627C11.4668 10.292 11.4906 10.4205 11.5391 10.5404C11.5876 10.6604 11.6598 10.7693 11.7514 10.8608C11.8429 10.9522 11.952 11.0243 12.0721 11.0728C12.1922 11.1212 12.3208 11.145 12.4502 11.1427C12.5797 11.1404 12.7074 11.1121 12.8257 11.0595C12.944 11.0068 13.0504 10.9309 13.1387 10.8363L17.3173 6.66269L18 5.98207L17.3186 5.30145L13.14 1.12783C12.9582 0.9523 12.7147 0.855105 12.4618 0.85718C12.209 0.859254 11.9671 0.960433 11.7882 1.13892C11.6094 1.31742 11.5078 1.55894 11.5055 1.81147C11.5032 2.064 11.6003 2.30734 11.7759 2.48907L14.3087 5.01893H0.964286C0.708541 5.01893 0.463271 5.1204 0.282433 5.30103C0.101594 5.48165 0 5.72663 0 5.98207C0 6.23751 0.101594 6.48249 0.282433 6.66312C0.463271 6.84374 0.708541 6.94522 0.964286 6.94522H14.3087L11.7759 9.47507Z" fill="white"/>
</svg>
