<svg width="10" height="16" viewBox="0 0 10 16" fill="none" xmlns="http://www.w3.org/2000/svg">
<path d="M0.778613 0.77914L0.778981 0.778783C1.16246 0.406405 1.79628 0.412538 2.15871 0.764483L8.91799 7.32814L8.91836 7.3285C9.00767 7.41505 9.07772 7.51705 9.12523 7.62827L9.58503 7.43186L9.12523 7.62828C9.17273 7.73946 9.19697 7.85811 9.19697 7.97758C9.19697 8.09704 9.17273 8.21569 9.12523 8.32688C9.07772 8.4381 9.00767 8.54011 8.91836 8.62666L8.91799 8.62702L2.15871 15.1907C1.97819 15.366 1.7303 15.467 1.46885 15.467C1.20739 15.467 0.959504 15.366 0.778981 15.1907L0.430656 15.5494L0.778981 15.1907C0.598956 15.0159 0.500624 14.7819 0.500624 14.5412C0.500624 14.3005 0.598954 14.0666 0.778981 13.8918L0.433967 13.5365L0.778981 13.8918L6.4927 8.34343L6.8621 7.98473L6.4927 7.62602L0.778981 2.07766L0.778613 2.0773C0.689299 1.99075 0.619251 1.88874 0.57174 1.77752C0.524243 1.66633 0.5 1.54768 0.5 1.42822C0.5 1.30876 0.524243 1.19011 0.57174 1.07892C0.619251 0.967697 0.689299 0.865692 0.778613 0.77914Z" fill="black" stroke="black"/>
</svg>
