<svg width="19" height="10" viewBox="0 0 19 10" fill="none" xmlns="http://www.w3.org/2000/svg">
<path fill-rule="evenodd" clip-rule="evenodd" d="M12.2759 8.37854C12.1811 8.46426 12.1051 8.56764 12.0524 8.68251C11.9997 8.79737 11.9714 8.92136 11.9691 9.04709C11.9668 9.17282 11.9906 9.29771 12.0391 9.41431C12.0876 9.5309 12.1598 9.63682 12.2514 9.72574C12.3429 9.81466 12.452 9.88475 12.5721 9.93185C12.6922 9.97894 12.8208 10.0021 12.9502 9.99986C13.0797 9.99764 13.2074 9.97012 13.3257 9.91894C13.444 9.86776 13.5504 9.79397 13.6387 9.70197L17.8173 5.64428L18.5 4.98257L17.8186 4.32085L13.64 0.263166C13.4582 0.0925101 13.2147 -0.00198532 12.9618 3.16366e-05C12.709 0.00204859 12.4671 0.100417 12.2882 0.27395C12.1094 0.447483 12.0078 0.682296 12.0055 0.927814C12.0032 1.17333 12.1003 1.40991 12.2759 1.5866L14.8087 4.04618H1.46429C1.20854 4.04618 0.963271 4.14483 0.782433 4.32044C0.601594 4.49605 0.5 4.73422 0.5 4.98257C0.5 5.23091 0.601594 5.46909 0.782433 5.64469C0.963271 5.8203 1.20854 5.91896 1.46429 5.91896H14.8087L12.2759 8.37854Z" fill="#ED1C24"/>
</svg>
