<svg width="20" height="20" viewBox="0 0 20 20" fill="none" xmlns="http://www.w3.org/2000/svg">
<path d="M14.8801 4.10255H16.8707C15.846 3.11069 14.5795 2.37521 13.184 1.96149C11.7885 1.54778 10.3071 1.46866 8.87174 1.73117C7.43634 1.99367 6.09135 2.58968 4.95638 3.46617C3.82142 4.34266 2.93166 5.47248 2.36622 6.75515C1.80079 8.03782 1.57721 9.43358 1.71537 10.8183C1.85353 12.203 2.34914 13.5338 3.15813 14.6923C3.96713 15.8508 5.06443 16.8011 6.35245 17.4587C7.64047 18.1162 9.07929 18.4607 10.541 18.4615C12.1926 18.4684 13.8128 18.0312 15.2147 17.2001C16.6166 16.369 17.7432 15.1779 18.4648 13.764C18.5591 13.5807 18.7261 13.4405 18.929 13.3744C19.132 13.3082 19.3542 13.3215 19.5468 13.4112C19.7395 13.501 19.8868 13.6599 19.9563 13.853C20.0259 14.0461 20.0119 14.2576 19.9176 14.441C19.0636 16.114 17.7304 17.5234 16.0715 18.5069C14.4126 19.4904 12.4954 20.0079 10.541 19.9999C8.78405 20.0051 7.05381 19.591 5.50851 18.7955C3.9632 18 2.65215 16.8485 1.69527 15.4463C0.738394 14.0441 0.166233 12.436 0.0311216 10.769C-0.10399 9.10205 0.202262 7.42944 0.921865 5.90419C1.64147 4.37894 2.75145 3.04973 4.15029 2.03814C5.54913 1.02655 7.19218 0.364864 8.92914 0.11361C10.6661 -0.137643 12.4415 0.0295533 14.0931 0.599907C15.7446 1.17026 17.2195 2.12557 18.3829 3.37845V0.769227C18.3829 0.565216 18.468 0.369559 18.6196 0.225301C18.7712 0.0810432 18.9768 0 19.1912 0C19.4056 0 19.6112 0.0810432 19.7628 0.225301C19.9144 0.369559 19.9995 0.565216 19.9995 0.769227V4.87177C19.9995 5.07578 19.9144 5.27144 19.7628 5.4157C19.6112 5.55996 19.4056 5.641 19.1912 5.641H14.8801C14.6657 5.641 14.4601 5.55996 14.3085 5.4157C14.1569 5.27144 14.0718 5.07578 14.0718 4.87177C14.0718 4.66776 14.1569 4.4721 14.3085 4.32785C14.4601 4.18359 14.6657 4.10255 14.8801 4.10255ZM9.56898 6.12818C9.3546 6.12818 9.149 6.20922 8.99741 6.35348C8.84582 6.49774 8.76065 6.6934 8.76065 6.89741V11C8.76057 11.101 8.78148 11.201 8.82217 11.2943C8.86286 11.3876 8.92254 11.4723 8.99776 11.5435L11.1533 13.5948C11.3065 13.7307 11.5092 13.8047 11.7186 13.8011C11.928 13.7976 12.1278 13.7169 12.2759 13.576C12.424 13.435 12.5089 13.2449 12.5126 13.0456C12.5163 12.8463 12.4385 12.6535 12.2958 12.5076L10.3773 10.681V6.89741C10.3773 6.6934 10.2922 6.49774 10.1406 6.35348C9.98897 6.20922 9.78337 6.12818 9.56898 6.12818Z" fill="#303334"/>
</svg>
