<svg width="61" height="40" viewBox="0 0 61 40" fill="none" xmlns="http://www.w3.org/2000/svg">
<rect width="61" height="40" fill="#F5F5F5"/>
<g clip-path="url(#clip0_0_1)">
<rect width="1440" height="1024" transform="translate(-1040 -301)" fill="#062638"/>
<g clip-path="url(#clip1_0_1)">
<path d="M-1040 -221H400V723H-1040V-221Z" fill="#F2F6F8"/>
</g>
<path d="M-1040 -197C-1040 -210.807 -1028.81 -222 -1015 -222H375C388.807 -222 400 -210.807 400 -197C400 -209.703 389.255 -220 376 -220H-1016C-1029.25 -220 -1040 -209.703 -1040 -197ZM400 723H-1040H400ZM-1040 723V-221V723ZM400 -221V723V-221Z" fill="#B2DCEE" mask="url(#path-1-inside-1_0_1)"/>
<path d="M-30 -67C-30 -72.5228 -25.5228 -77 -20 -77H360C365.523 -77 370 -72.5228 370 -67V219C370 224.523 365.523 229 360 229H-20C-25.5229 229 -30 224.523 -30 219V-67Z" fill="white"/>
<g clip-path="url(#clip2_0_1)">
<path d="M3.12821 0.5H57.8718C59.3203 0.5 60.5 1.68271 60.5 3.14839V36.2065C60.5 37.6722 59.3203 38.8548 57.8718 38.8548H3.12821C1.67974 38.8548 0.5 37.6722 0.5 36.2065V3.14839C0.5 1.68272 1.67974 0.5 3.12821 0.5Z" fill="white" stroke="#E1E1E1"/>
<path d="M21.7157 27.3689L24.3258 12.1184H28.5006L25.8886 27.3689H21.7157ZM40.971 12.4472C40.1441 12.1382 38.8479 11.8066 37.2295 11.8066C33.1044 11.8066 30.1986 13.875 30.1739 16.8395C30.1505 19.0309 32.2484 20.2534 33.8318 20.9829C35.4569 21.7304 36.003 22.2071 35.9954 22.8746C35.9851 23.8968 34.6977 24.3639 33.4978 24.3639C31.8269 24.3639 30.9392 24.1327 29.5681 23.5633L29.0302 23.321L28.4442 26.735C29.4193 27.1607 31.2225 27.5295 33.0946 27.5486C37.483 27.5486 40.3317 25.5039 40.3642 22.3382C40.3798 20.6033 39.2676 19.2831 36.8591 18.1946C35.3999 17.4892 34.5063 17.0183 34.5157 16.304C34.5157 15.6701 35.2721 14.9922 36.9065 14.9922C38.2717 14.9712 39.2607 15.2676 40.0312 15.5765L40.4052 15.7526L40.971 12.4472ZM51.714 12.1182H48.4881C47.4887 12.1182 46.7408 12.3898 46.302 13.3829L40.1021 27.3589H44.4858C44.4858 27.3589 45.2025 25.4796 45.3646 25.0671C45.8438 25.0671 50.1024 25.0736 50.7113 25.0736C50.8362 25.6075 51.2191 27.3589 51.2191 27.3589H55.093L51.714 12.1177V12.1182ZM46.5958 21.966C46.941 21.0874 48.2591 17.7029 48.2591 17.7029C48.2344 17.7436 48.6018 16.8199 48.8126 16.2473L49.0947 17.5623C49.0947 17.5623 49.8942 21.2027 50.0612 21.966H46.5958ZM18.1716 12.1182L14.0844 22.5184L13.6489 20.4048C12.888 17.9685 10.5174 15.329 7.86719 14.0075L11.6043 27.3447L16.0214 27.3397L22.5938 12.118H18.1716" fill="#0E4595"/>
<path d="M10.5162 11.8069H3.98528L3.93359 12.108C9.01447 13.3057 12.3764 16.2001 13.7723 19.6776L12.3521 13.0282C12.107 12.1121 11.396 11.8386 10.5163 11.8066" fill="#F2AE14"/>
</g>
</g>
<defs>
<clipPath id="clip0_0_1">
<rect width="1440" height="1024" fill="white" transform="translate(-1040 -301)"/>
</clipPath>
<clipPath id="clip1_0_1">
<path d="M-1040 -197C-1040 -210.255 -1029.25 -221 -1016 -221H376C389.255 -221 400 -210.255 400 -197V723H-1040V-197Z" fill="white"/>
</clipPath>
<clipPath id="clip2_0_1">
<rect width="61" height="39.3548" fill="white"/>
</clipPath>
</defs>
</svg>
